<?xml version="1.0" standalone="no"?>
<!DOCTYPE svg PUBLIC "-//W3C//DTD SVG 1.0//EN" "http://www.w3.org/TR/2001/REC-SVG-20010904/DTD/svg10.dtd">
<svg xmlns="http://www.w3.org/2000/svg"  xmlns:inkscape="http://www.inkscape.org/namespaces/inkscape" xmlns:xlink="http://www.w3.org/1999/xlink" xmlns:sodipodi="http://sodipodi.sourceforge.net/DTD/sodipodi-0.dtd" version="1.1" width="1152" height="1152">
<desc>CopyRight:SVG Design Editor;
configurationStart;Unit=smInches;Dpi=96;Division=4;Grid=True;Zoom=1;CanvasW=1152;CanvasH=1152;configurationEnd;</desc>
<g inkscape:label = "Default Layer" inkscape:groupmode = "layer" ><rect style="fill:none;stroke:Black; stroke-width:1" x = "50" y = "50" width = "1.041667in" height = "1.041667in" transform = "matrix(1,0,0,1,61,66)" vector-effect="non-scaling-stroke" pen = "1,1" />
<rect style="fill:none;stroke:Black; stroke-width:1" x = "50" y = "50" width = "1.041667in" height = "1.041667in" transform = "matrix(1,0,0,1,209,147)" vector-effect="non-scaling-stroke" pen = "1,1" />
<rect style="fill:none;stroke:Black; stroke-width:1" x = "50" y = "50" width = "1.041667in" height = "1.041667in" transform = "matrix(1,0,0,1,183,53)" vector-effect="non-scaling-stroke" pen = "1,1" />
<rect style="fill:none;stroke:Black; stroke-width:1" x = "50" y = "50" width = "1.041667in" height = "1.041667in" transform = "matrix(1,0,0,1,91,138)" vector-effect="non-scaling-stroke" pen = "1,1" />
<rect style="fill:none;stroke:Black; stroke-width:1" x = "50" y = "50" width = "1.041667in" height = "1.041667in" transform = "matrix(1,0,0,1,61,66)" vector-effect="non-scaling-stroke" pen = "1,1" />
<rect style="fill:none;stroke:Black; stroke-width:1" x = "50" y = "50" width = "1.041667in" height = "1.041667in" transform = "matrix(1,0,0,1,209,147)" vector-effect="non-scaling-stroke" pen = "1,1" />
<rect style="fill:none;stroke:Black; stroke-width:1" x = "50" y = "50" width = "1.041667in" height = "1.041667in" transform = "matrix(1,0,0,1,183,53)" vector-effect="non-scaling-stroke" pen = "1,1" />
<rect style="fill:none;stroke:Black; stroke-width:1" x = "50" y = "50" width = "1.041667in" height = "1.041667in" transform = "matrix(1,0,0,1,91,138)" vector-effect="non-scaling-stroke" pen = "1,1" />
<rect style="fill:none;stroke:Black; stroke-width:1" x = "50" y = "50" width = "1.041667in" height = "1.041667in" transform = "matrix(1,0,0,1,61,66)" vector-effect="non-scaling-stroke" pen = "1,1" />
<rect style="fill:none;stroke:Black; stroke-width:1" x = "50" y = "50" width = "1.041667in" height = "1.041667in" transform = "matrix(1,0,0,1,209,147)" vector-effect="non-scaling-stroke" pen = "1,1" />
<rect style="fill:none;stroke:Black; stroke-width:1" x = "50" y = "50" width = "1.041667in" height = "1.041667in" transform = "matrix(1,0,0,1,183,53)" vector-effect="non-scaling-stroke" pen = "1,1" />
<rect style="fill:none;stroke:Black; stroke-width:1" x = "50" y = "50" width = "1.041667in" height = "1.041667in" transform = "matrix(1,0,0,1,91,138)" vector-effect="non-scaling-stroke" pen = "1,1" />
<rect style="fill:none;stroke:Black; stroke-width:1" x = "50" y = "50" width = "1.041667in" height = "1.041667in" transform = "matrix(1,0,0,1,61,66)" vector-effect="non-scaling-stroke" pen = "1,1" />
<rect style="fill:none;stroke:Black; stroke-width:1" x = "50" y = "50" width = "1.041667in" height = "1.041667in" transform = "matrix(1,0,0,1,209,147)" vector-effect="non-scaling-stroke" pen = "1,1" />
<rect style="fill:none;stroke:Black; stroke-width:1" x = "50" y = "50" width = "1.041667in" height = "1.041667in" transform = "matrix(1,0,0,1,183,53)" vector-effect="non-scaling-stroke" pen = "1,1" />
<rect style="fill:none;stroke:Black; stroke-width:1" x = "50" y = "50" width = "1.041667in" height = "1.041667in" transform = "matrix(1,0,0,1,91,138)" vector-effect="non-scaling-stroke" pen = "1,1" />
<rect style="fill:none;stroke:Black; stroke-width:1" x = "50" y = "50" width = "1.041667in" height = "1.041667in" transform = "matrix(1,0,0,1,61,66)" vector-effect="non-scaling-stroke" pen = "1,1" />
<rect style="fill:none;stroke:Black; stroke-width:1" x = "50" y = "50" width = "1.041667in" height = "1.041667in" transform = "matrix(1,0,0,1,209,147)" vector-effect="non-scaling-stroke" pen = "1,1" />
<rect style="fill:none;stroke:Black; stroke-width:1" x = "50" y = "50" width = "1.041667in" height = "1.041667in" transform = "matrix(1,0,0,1,183,53)" vector-effect="non-scaling-stroke" pen = "1,1" />
<rect style="fill:none;stroke:Black; stroke-width:1" x = "50" y = "50" width = "1.041667in" height = "1.041667in" transform = "matrix(1,0,0,1,91,138)" vector-effect="non-scaling-stroke" pen = "1,1" />
<rect style="fill:none;stroke:Black; stroke-width:1" x = "50" y = "50" width = "1.041667in" height = "1.041667in" transform = "matrix(1,0,0,1,61,66)" vector-effect="non-scaling-stroke" pen = "1,1" />
<rect style="fill:none;stroke:Black; stroke-width:1" x = "50" y = "50" width = "1.041667in" height = "1.041667in" transform = "matrix(1,0,0,1,209,147)" vector-effect="non-scaling-stroke" pen = "1,1" />
<rect style="fill:none;stroke:Black; stroke-width:1" x = "50" y = "50" width = "1.041667in" height = "1.041667in" transform = "matrix(1,0,0,1,183,53)" vector-effect="non-scaling-stroke" pen = "1,1" />
<rect style="fill:none;stroke:Black; stroke-width:1" x = "50" y = "50" width = "1.041667in" height = "1.041667in" transform = "matrix(1,0,0,1,91,138)" vector-effect="non-scaling-stroke" pen = "1,1" />
<rect style="fill:none;stroke:Black; stroke-width:1" x = "50" y = "50" width = "1.041667in" height = "1.041667in" transform = "matrix(1,0,0,1,61,66)" vector-effect="non-scaling-stroke" pen = "1,1" />
<rect style="fill:none;stroke:Black; stroke-width:1" x = "50" y = "50" width = "1.041667in" height = "1.041667in" transform = "matrix(1,0,0,1,209,147)" vector-effect="non-scaling-stroke" pen = "1,1" />
<rect style="fill:none;stroke:Black; stroke-width:1" x = "50" y = "50" width = "1.041667in" height = "1.041667in" transform = "matrix(1,0,0,1,183,53)" vector-effect="non-scaling-stroke" pen = "1,1" />
<rect style="fill:none;stroke:Black; stroke-width:1" x = "50" y = "50" width = "1.041667in" height = "1.041667in" transform = "matrix(1,0,0,1,91,138)" vector-effect="non-scaling-stroke" pen = "1,1" />
<rect style="fill:none;stroke:Black; stroke-width:1" x = "50" y = "50" width = "1.041667in" height = "1.041667in" transform = "matrix(1,0,0,1,61,66)" vector-effect="non-scaling-stroke" pen = "1,1" />
<rect style="fill:none;stroke:Black; stroke-width:1" x = "50" y = "50" width = "1.041667in" height = "1.041667in" transform = "matrix(1,0,0,1,209,147)" vector-effect="non-scaling-stroke" pen = "1,1" />
<rect style="fill:none;stroke:Black; stroke-width:1" x = "50" y = "50" width = "1.041667in" height = "1.041667in" transform = "matrix(1,0,0,1,183,53)" vector-effect="non-scaling-stroke" pen = "1,1" />
<rect style="fill:none;stroke:Black; stroke-width:1" x = "50" y = "50" width = "1.041667in" height = "1.041667in" transform = "matrix(1,0,0,1,91,138)" vector-effect="non-scaling-stroke" pen = "1,1" />
<rect style="fill:none;stroke:Black; stroke-width:1" x = "50" y = "50" width = "1.041667in" height = "1.041667in" transform = "matrix(1,0,0,1,61,66)" vector-effect="non-scaling-stroke" pen = "1,1" />
<rect style="fill:none;stroke:Black; stroke-width:1" x = "50" y = "50" width = "1.041667in" height = "1.041667in" transform = "matrix(1,0,0,1,209,147)" vector-effect="non-scaling-stroke" pen = "1,1" />
<rect style="fill:none;stroke:Black; stroke-width:1" x = "50" y = "50" width = "1.041667in" height = "1.041667in" transform = "matrix(1,0,0,1,183,53)" vector-effect="non-scaling-stroke" pen = "1,1" />
<rect style="fill:none;stroke:Black; stroke-width:1" x = "50" y = "50" width = "1.041667in" height = "1.041667in" transform = "matrix(1,0,0,1,91,138)" vector-effect="non-scaling-stroke" pen = "1,1" />
<rect style="fill:none;stroke:Black; stroke-width:1" x = "50" y = "50" width = "1.041667in" height = "1.041667in" transform = "matrix(1,0,0,1,61,66)" vector-effect="non-scaling-stroke" pen = "1,1" />
<rect style="fill:none;stroke:Black; stroke-width:1" x = "50" y = "50" width = "1.041667in" height = "1.041667in" transform = "matrix(1,0,0,1,209,147)" vector-effect="non-scaling-stroke" pen = "1,1" />
<rect style="fill:none;stroke:Black; stroke-width:1" x = "50" y = "50" width = "1.041667in" height = "1.041667in" transform = "matrix(1,0,0,1,183,53)" vector-effect="non-scaling-stroke" pen = "1,1" />
<rect style="fill:none;stroke:Black; stroke-width:1" x = "50" y = "50" width = "1.041667in" height = "1.041667in" transform = "matrix(1,0,0,1,91,138)" vector-effect="non-scaling-stroke" pen = "1,1" />
<rect style="fill:none;stroke:Black; stroke-width:1" x = "50" y = "50" width = "1.041667in" height = "1.041667in" transform = "matrix(1,0,0,1,61,66)" vector-effect="non-scaling-stroke" pen = "1,1" />
<rect style="fill:none;stroke:Black; stroke-width:1" x = "50" y = "50" width = "1.041667in" height = "1.041667in" transform = "matrix(1,0,0,1,209,147)" vector-effect="non-scaling-stroke" pen = "1,1" />
<rect style="fill:none;stroke:Black; stroke-width:1" x = "50" y = "50" width = "1.041667in" height = "1.041667in" transform = "matrix(1,0,0,1,183,53)" vector-effect="non-scaling-stroke" pen = "1,1" />
<rect style="fill:none;stroke:Black; stroke-width:1" x = "50" y = "50" width = "1.041667in" height = "1.041667in" transform = "matrix(1,0,0,1,91,138)" vector-effect="non-scaling-stroke" pen = "1,1" />
<rect style="fill:none;stroke:Black; stroke-width:1" x = "50" y = "50" width = "1.041667in" height = "1.041667in" transform = "matrix(1,0,0,1,61,66)" vector-effect="non-scaling-stroke" pen = "1,1" />
<rect style="fill:none;stroke:Black; stroke-width:1" x = "50" y = "50" width = "1.041667in" height = "1.041667in" transform = "matrix(1,0,0,1,209,147)" vector-effect="non-scaling-stroke" pen = "1,1" />
<rect style="fill:none;stroke:Black; stroke-width:1" x = "50" y = "50" width = "1.041667in" height = "1.041667in" transform = "matrix(1,0,0,1,183,53)" vector-effect="non-scaling-stroke" pen = "1,1" />
<rect style="fill:none;stroke:Black; stroke-width:1" x = "50" y = "50" width = "1.041667in" height = "1.041667in" transform = "matrix(1,0,0,1,91,138)" vector-effect="non-scaling-stroke" pen = "1,1" />
<rect style="fill:none;stroke:Black; stroke-width:1" x = "50" y = "50" width = "1.041667in" height = "1.041667in" transform = "matrix(1,0,0,1,61,66)" vector-effect="non-scaling-stroke" pen = "1,1" />
<rect style="fill:none;stroke:Black; stroke-width:1" x = "50" y = "50" width = "1.041667in" height = "1.041667in" transform = "matrix(1,0,0,1,209,147)" vector-effect="non-scaling-stroke" pen = "1,1" />
<rect style="fill:none;stroke:Black; stroke-width:1" x = "50" y = "50" width = "1.041667in" height = "1.041667in" transform = "matrix(1,0,0,1,183,53)" vector-effect="non-scaling-stroke" pen = "1,1" />
<rect style="fill:none;stroke:Black; stroke-width:1" x = "50" y = "50" width = "1.041667in" height = "1.041667in" transform = "matrix(1,0,0,1,91,138)" vector-effect="non-scaling-stroke" pen = "1,1" />
<rect style="fill:none;stroke:Black; stroke-width:1" x = "50" y = "50" width = "1.041667in" height = "1.041667in" transform = "matrix(1,0,0,1,61,66)" vector-effect="non-scaling-stroke" pen = "1,1" />
<rect style="fill:none;stroke:Black; stroke-width:1" x = "50" y = "50" width = "1.041667in" height = "1.041667in" transform = "matrix(1,0,0,1,209,147)" vector-effect="non-scaling-stroke" pen = "1,1" />
<rect style="fill:none;stroke:Black; stroke-width:1" x = "50" y = "50" width = "1.041667in" height = "1.041667in" transform = "matrix(1,0,0,1,183,53)" vector-effect="non-scaling-stroke" pen = "1,1" />
<rect style="fill:none;stroke:Black; stroke-width:1" x = "50" y = "50" width = "1.041667in" height = "1.041667in" transform = "matrix(1,0,0,1,91,138)" vector-effect="non-scaling-stroke" pen = "1,1" />
<rect style="fill:none;stroke:Black; stroke-width:1" x = "50" y = "50" width = "1.041667in" height = "1.041667in" transform = "matrix(1,0,0,1,61,66)" vector-effect="non-scaling-stroke" pen = "1,1" />
<rect style="fill:none;stroke:Black; stroke-width:1" x = "50" y = "50" width = "1.041667in" height = "1.041667in" transform = "matrix(1,0,0,1,209,147)" vector-effect="non-scaling-stroke" pen = "1,1" />
<rect style="fill:none;stroke:Black; stroke-width:1" x = "50" y = "50" width = "1.041667in" height = "1.041667in" transform = "matrix(1,0,0,1,183,53)" vector-effect="non-scaling-stroke" pen = "1,1" />
<rect style="fill:none;stroke:Black; stroke-width:1" x = "50" y = "50" width = "1.041667in" height = "1.041667in" transform = "matrix(1,0,0,1,91,138)" vector-effect="non-scaling-stroke" pen = "1,1" />
<rect style="fill:none;stroke:Black; stroke-width:1" x = "50" y = "50" width = "1.041667in" height = "1.041667in" transform = "matrix(1,0,0,1,61,66)" vector-effect="non-scaling-stroke" pen = "1,1" />
<rect style="fill:none;stroke:Black; stroke-width:1" x = "50" y = "50" width = "1.041667in" height = "1.041667in" transform = "matrix(1,0,0,1,209,147)" vector-effect="non-scaling-stroke" pen = "1,1" />
<rect style="fill:none;stroke:Black; stroke-width:1" x = "50" y = "50" width = "1.041667in" height = "1.041667in" transform = "matrix(1,0,0,1,183,53)" vector-effect="non-scaling-stroke" pen = "1,1" />
<rect style="fill:none;stroke:Black; stroke-width:1" x = "50" y = "50" width = "1.041667in" height = "1.041667in" transform = "matrix(1,0,0,1,91,138)" vector-effect="non-scaling-stroke" pen = "1,1" />
<rect style="fill:none;stroke:Black; stroke-width:1" x = "50" y = "50" width = "1.041667in" height = "1.041667in" transform = "matrix(1,0,0,1,61,66)" vector-effect="non-scaling-stroke" pen = "1,1" />
<rect style="fill:none;stroke:Black; stroke-width:1" x = "50" y = "50" width = "1.041667in" height = "1.041667in" transform = "matrix(1,0,0,1,209,147)" vector-effect="non-scaling-stroke" pen = "1,1" />
<rect style="fill:none;stroke:Black; stroke-width:1" x = "50" y = "50" width = "1.041667in" height = "1.041667in" transform = "matrix(1,0,0,1,183,53)" vector-effect="non-scaling-stroke" pen = "1,1" />
<rect style="fill:none;stroke:Black; stroke-width:1" x = "50" y = "50" width = "1.041667in" height = "1.041667in" transform = "matrix(1,0,0,1,91,138)" vector-effect="non-scaling-stroke" pen = "1,1" />
<rect style="fill:none;stroke:Black; stroke-width:1" x = "50" y = "50" width = "1.041667in" height = "1.041667in" transform = "matrix(1,0,0,1,61,66)" vector-effect="non-scaling-stroke" pen = "1,1" />
<rect style="fill:none;stroke:Black; stroke-width:1" x = "50" y = "50" width = "1.041667in" height = "1.041667in" transform = "matrix(1,0,0,1,209,147)" vector-effect="non-scaling-stroke" pen = "1,1" />
<rect style="fill:none;stroke:Black; stroke-width:1" x = "50" y = "50" width = "1.041667in" height = "1.041667in" transform = "matrix(1,0,0,1,183,53)" vector-effect="non-scaling-stroke" pen = "1,1" />
<rect style="fill:none;stroke:Black; stroke-width:1" x = "50" y = "50" width = "1.041667in" height = "1.041667in" transform = "matrix(1,0,0,1,91,138)" vector-effect="non-scaling-stroke" pen = "1,1" />
<rect style="fill:none;stroke:Black; stroke-width:1" x = "50" y = "50" width = "1.041667in" height = "1.041667in" transform = "matrix(1,0,0,1,61,66)" vector-effect="non-scaling-stroke" pen = "1,1" />
<rect style="fill:none;stroke:Black; stroke-width:1" x = "50" y = "50" width = "1.041667in" height = "1.041667in" transform = "matrix(1,0,0,1,209,147)" vector-effect="non-scaling-stroke" pen = "1,1" />
<rect style="fill:none;stroke:Black; stroke-width:1" x = "50" y = "50" width = "1.041667in" height = "1.041667in" transform = "matrix(1,0,0,1,183,53)" vector-effect="non-scaling-stroke" pen = "1,1" />
<rect style="fill:none;stroke:Black; stroke-width:1" x = "50" y = "50" width = "1.041667in" height = "1.041667in" transform = "matrix(1,0,0,1,91,138)" vector-effect="non-scaling-stroke" pen = "1,1" />
<rect style="fill:none;stroke:Black; stroke-width:1" x = "50" y = "50" width = "1.041667in" height = "1.041667in" transform = "matrix(1,0,0,1,61,66)" vector-effect="non-scaling-stroke" pen = "1,1" />
<rect style="fill:none;stroke:Black; stroke-width:1" x = "50" y = "50" width = "1.041667in" height = "1.041667in" transform = "matrix(1,0,0,1,209,147)" vector-effect="non-scaling-stroke" pen = "1,1" />
<rect style="fill:none;stroke:Black; stroke-width:1" x = "50" y = "50" width = "1.041667in" height = "1.041667in" transform = "matrix(1,0,0,1,183,53)" vector-effect="non-scaling-stroke" pen = "1,1" />
<rect style="fill:none;stroke:Black; stroke-width:1" x = "50" y = "50" width = "1.041667in" height = "1.041667in" transform = "matrix(1,0,0,1,91,138)" vector-effect="non-scaling-stroke" pen = "1,1" />
<rect style="fill:none;stroke:Black; stroke-width:1" x = "50" y = "50" width = "1.041667in" height = "1.041667in" transform = "matrix(1,0,0,1,61,66)" vector-effect="non-scaling-stroke" pen = "1,1" />
<rect style="fill:none;stroke:Black; stroke-width:1" x = "50" y = "50" width = "1.041667in" height = "1.041667in" transform = "matrix(1,0,0,1,209,147)" vector-effect="non-scaling-stroke" pen = "1,1" />
<rect style="fill:none;stroke:Black; stroke-width:1" x = "50" y = "50" width = "1.041667in" height = "1.041667in" transform = "matrix(1,0,0,1,183,53)" vector-effect="non-scaling-stroke" pen = "1,1" />
<rect style="fill:none;stroke:Black; stroke-width:1" x = "50" y = "50" width = "1.041667in" height = "1.041667in" transform = "matrix(1,0,0,1,91,138)" vector-effect="non-scaling-stroke" pen = "1,1" />
<rect style="fill:none;stroke:Black; stroke-width:1" x = "50" y = "50" width = "1.041667in" height = "1.041667in" transform = "matrix(1,0,0,1,61,66)" vector-effect="non-scaling-stroke" pen = "1,1" />
<rect style="fill:none;stroke:Black; stroke-width:1" x = "50" y = "50" width = "1.041667in" height = "1.041667in" transform = "matrix(1,0,0,1,209,147)" vector-effect="non-scaling-stroke" pen = "1,1" />
<rect style="fill:none;stroke:Black; stroke-width:1" x = "50" y = "50" width = "1.041667in" height = "1.041667in" transform = "matrix(1,0,0,1,183,53)" vector-effect="non-scaling-stroke" pen = "1,1" />
<rect style="fill:none;stroke:Black; stroke-width:1" x = "50" y = "50" width = "1.041667in" height = "1.041667in" transform = "matrix(1,0,0,1,91,138)" vector-effect="non-scaling-stroke" pen = "1,1" />
<rect style="fill:none;stroke:Black; stroke-width:1" x = "50" y = "50" width = "1.041667in" height = "1.041667in" transform = "matrix(1,0,0,1,61,66)" vector-effect="non-scaling-stroke" pen = "1,1" />
<rect style="fill:none;stroke:Black; stroke-width:1" x = "50" y = "50" width = "1.041667in" height = "1.041667in" transform = "matrix(1,0,0,1,209,147)" vector-effect="non-scaling-stroke" pen = "1,1" />
<rect style="fill:none;stroke:Black; stroke-width:1" x = "50" y = "50" width = "1.041667in" height = "1.041667in" transform = "matrix(1,0,0,1,183,53)" vector-effect="non-scaling-stroke" pen = "1,1" />
<rect style="fill:none;stroke:Black; stroke-width:1" x = "50" y = "50" width = "1.041667in" height = "1.041667in" transform = "matrix(1,0,0,1,91,138)" vector-effect="non-scaling-stroke" pen = "1,1" />
<rect style="fill:none;stroke:Black; stroke-width:1" x = "50" y = "50" width = "1.041667in" height = "1.041667in" transform = "matrix(1,0,0,1,61,66)" vector-effect="non-scaling-stroke" pen = "1,1" />
<rect style="fill:none;stroke:Black; stroke-width:1" x = "50" y = "50" width = "1.041667in" height = "1.041667in" transform = "matrix(1,0,0,1,209,147)" vector-effect="non-scaling-stroke" pen = "1,1" />
<rect style="fill:none;stroke:Black; stroke-width:1" x = "50" y = "50" width = "1.041667in" height = "1.041667in" transform = "matrix(1,0,0,1,183,53)" vector-effect="non-scaling-stroke" pen = "1,1" />
<rect style="fill:none;stroke:Black; stroke-width:1" x = "50" y = "50" width = "1.041667in" height = "1.041667in" transform = "matrix(1,0,0,1,91,138)" vector-effect="non-scaling-stroke" pen = "1,1" />
<rect style="fill:none;stroke:Black; stroke-width:1" x = "50" y = "50" width = "1.041667in" height = "1.041667in" transform = "matrix(1,0,0,1,61,66)" vector-effect="non-scaling-stroke" pen = "1,1" />
<rect style="fill:none;stroke:Black; stroke-width:1" x = "50" y = "50" width = "1.041667in" height = "1.041667in" transform = "matrix(1,0,0,1,209,147)" vector-effect="non-scaling-stroke" pen = "1,1" />
<rect style="fill:none;stroke:Black; stroke-width:1" x = "50" y = "50" width = "1.041667in" height = "1.041667in" transform = "matrix(1,0,0,1,183,53)" vector-effect="non-scaling-stroke" pen = "1,1" />
<rect style="fill:none;stroke:Black; stroke-width:1" x = "50" y = "50" width = "1.041667in" height = "1.041667in" transform = "matrix(1,0,0,1,91,138)" vector-effect="non-scaling-stroke" pen = "1,1" />
<rect style="fill:none;stroke:Black; stroke-width:1" x = "50" y = "50" width = "1.041667in" height = "1.041667in" transform = "matrix(1,0,0,1,61,66)" vector-effect="non-scaling-stroke" pen = "1,1" />
<rect style="fill:none;stroke:Black; stroke-width:1" x = "50" y = "50" width = "1.041667in" height = "1.041667in" transform = "matrix(1,0,0,1,209,147)" vector-effect="non-scaling-stroke" pen = "1,1" />
<rect style="fill:none;stroke:Black; stroke-width:1" x = "50" y = "50" width = "1.041667in" height = "1.041667in" transform = "matrix(1,0,0,1,183,53)" vector-effect="non-scaling-stroke" pen = "1,1" />
<rect style="fill:none;stroke:Black; stroke-width:1" x = "50" y = "50" width = "1.041667in" height = "1.041667in" transform = "matrix(1,0,0,1,91,138)" vector-effect="non-scaling-stroke" pen = "1,1" />
<rect style="fill:none;stroke:Black; stroke-width:1" x = "50" y = "50" width = "1.041667in" height = "1.041667in" transform = "matrix(1,0,0,1,61,66)" vector-effect="non-scaling-stroke" pen = "1,1" />
<rect style="fill:none;stroke:Black; stroke-width:1" x = "50" y = "50" width = "1.041667in" height = "1.041667in" transform = "matrix(1,0,0,1,209,147)" vector-effect="non-scaling-stroke" pen = "1,1" />
<rect style="fill:none;stroke:Black; stroke-width:1" x = "50" y = "50" width = "1.041667in" height = "1.041667in" transform = "matrix(1,0,0,1,183,53)" vector-effect="non-scaling-stroke" pen = "1,1" />
<rect style="fill:none;stroke:Black; stroke-width:1" x = "50" y = "50" width = "1.041667in" height = "1.041667in" transform = "matrix(1,0,0,1,91,138)" vector-effect="non-scaling-stroke" pen = "1,1" />
<rect style="fill:none;stroke:Black; stroke-width:1" x = "50" y = "50" width = "1.041667in" height = "1.041667in" transform = "matrix(1,0,0,1,61,66)" vector-effect="non-scaling-stroke" pen = "1,1" />
<rect style="fill:none;stroke:Black; stroke-width:1" x = "50" y = "50" width = "1.041667in" height = "1.041667in" transform = "matrix(1,0,0,1,209,147)" vector-effect="non-scaling-stroke" pen = "1,1" />
<rect style="fill:none;stroke:Black; stroke-width:1" x = "50" y = "50" width = "1.041667in" height = "1.041667in" transform = "matrix(1,0,0,1,183,53)" vector-effect="non-scaling-stroke" pen = "1,1" />
<rect style="fill:none;stroke:Black; stroke-width:1" x = "50" y = "50" width = "1.041667in" height = "1.041667in" transform = "matrix(1,0,0,1,91,138)" vector-effect="non-scaling-stroke" pen = "1,1" />
<rect style="fill:none;stroke:Black; stroke-width:1" x = "50" y = "50" width = "1.041667in" height = "1.041667in" transform = "matrix(1,0,0,1,61,66)" vector-effect="non-scaling-stroke" pen = "1,1" />
<rect style="fill:none;stroke:Black; stroke-width:1" x = "50" y = "50" width = "1.041667in" height = "1.041667in" transform = "matrix(1,0,0,1,209,147)" vector-effect="non-scaling-stroke" pen = "1,1" />
<rect style="fill:none;stroke:Black; stroke-width:1" x = "50" y = "50" width = "1.041667in" height = "1.041667in" transform = "matrix(1,0,0,1,183,53)" vector-effect="non-scaling-stroke" pen = "1,1" />
<rect style="fill:none;stroke:Black; stroke-width:1" x = "50" y = "50" width = "1.041667in" height = "1.041667in" transform = "matrix(1,0,0,1,91,138)" vector-effect="non-scaling-stroke" pen = "1,1" />
<rect style="fill:none;stroke:Black; stroke-width:1" x = "50" y = "50" width = "1.041667in" height = "1.041667in" transform = "matrix(1,0,0,1,61,66)" vector-effect="non-scaling-stroke" pen = "1,1" />
<rect style="fill:none;stroke:Black; stroke-width:1" x = "50" y = "50" width = "1.041667in" height = "1.041667in" transform = "matrix(1,0,0,1,209,147)" vector-effect="non-scaling-stroke" pen = "1,1" />
<rect style="fill:none;stroke:Black; stroke-width:1" x = "50" y = "50" width = "1.041667in" height = "1.041667in" transform = "matrix(1,0,0,1,183,53)" vector-effect="non-scaling-stroke" pen = "1,1" />
<rect style="fill:none;stroke:Black; stroke-width:1" x = "50" y = "50" width = "1.041667in" height = "1.041667in" transform = "matrix(1,0,0,1,91,138)" vector-effect="non-scaling-stroke" pen = "1,1" />
<rect style="fill:none;stroke:Black; stroke-width:1" x = "50" y = "50" width = "1.041667in" height = "1.041667in" transform = "matrix(1,0,0,1,61,66)" vector-effect="non-scaling-stroke" pen = "1,1" />
<rect style="fill:none;stroke:Black; stroke-width:1" x = "50" y = "50" width = "1.041667in" height = "1.041667in" transform = "matrix(1,0,0,1,209,147)" vector-effect="non-scaling-stroke" pen = "1,1" />
<rect style="fill:none;stroke:Black; stroke-width:1" x = "50" y = "50" width = "1.041667in" height = "1.041667in" transform = "matrix(1,0,0,1,183,53)" vector-effect="non-scaling-stroke" pen = "1,1" />
<rect style="fill:none;stroke:Black; stroke-width:1" x = "50" y = "50" width = "1.041667in" height = "1.041667in" transform = "matrix(1,0,0,1,91,138)" vector-effect="non-scaling-stroke" pen = "1,1" />
<rect style="fill:none;stroke:Black; stroke-width:1" x = "50" y = "50" width = "1.041667in" height = "1.041667in" transform = "matrix(1,0,0,1,61,66)" vector-effect="non-scaling-stroke" pen = "1,1" />
<rect style="fill:none;stroke:Black; stroke-width:1" x = "50" y = "50" width = "1.041667in" height = "1.041667in" transform = "matrix(1,0,0,1,209,147)" vector-effect="non-scaling-stroke" pen = "1,1" />
<rect style="fill:none;stroke:Black; stroke-width:1" x = "50" y = "50" width = "1.041667in" height = "1.041667in" transform = "matrix(1,0,0,1,183,53)" vector-effect="non-scaling-stroke" pen = "1,1" />
<rect style="fill:none;stroke:Black; stroke-width:1" x = "50" y = "50" width = "1.041667in" height = "1.041667in" transform = "matrix(1,0,0,1,91,138)" vector-effect="non-scaling-stroke" pen = "1,1" />
<rect style="fill:none;stroke:Black; stroke-width:1" x = "50" y = "50" width = "1.041667in" height = "1.041667in" transform = "matrix(1,0,0,1,61,66)" vector-effect="non-scaling-stroke" pen = "1,1" />
<rect style="fill:none;stroke:Black; stroke-width:1" x = "50" y = "50" width = "1.041667in" height = "1.041667in" transform = "matrix(1,0,0,1,209,147)" vector-effect="non-scaling-stroke" pen = "1,1" />
<rect style="fill:none;stroke:Black; stroke-width:1" x = "50" y = "50" width = "1.041667in" height = "1.041667in" transform = "matrix(1,0,0,1,183,53)" vector-effect="non-scaling-stroke" pen = "1,1" />
<rect style="fill:none;stroke:Black; stroke-width:1" x = "50" y = "50" width = "1.041667in" height = "1.041667in" transform = "matrix(1,0,0,1,91,138)" vector-effect="non-scaling-stroke" pen = "1,1" />
<rect style="fill:none;stroke:Black; stroke-width:1" x = "50" y = "50" width = "1.041667in" height = "1.041667in" transform = "matrix(1,0,0,1,61,66)" vector-effect="non-scaling-stroke" pen = "1,1" />
<rect style="fill:none;stroke:Black; stroke-width:1" x = "50" y = "50" width = "1.041667in" height = "1.041667in" transform = "matrix(1,0,0,1,209,147)" vector-effect="non-scaling-stroke" pen = "1,1" />
<rect style="fill:none;stroke:Black; stroke-width:1" x = "50" y = "50" width = "1.041667in" height = "1.041667in" transform = "matrix(1,0,0,1,183,53)" vector-effect="non-scaling-stroke" pen = "1,1" />
<rect style="fill:none;stroke:Black; stroke-width:1" x = "50" y = "50" width = "1.041667in" height = "1.041667in" transform = "matrix(1,0,0,1,91,138)" vector-effect="non-scaling-stroke" pen = "1,1" />
<rect style="fill:none;stroke:Black; stroke-width:1" x = "50" y = "50" width = "1.041667in" height = "1.041667in" transform = "matrix(1,0,0,1,61,66)" vector-effect="non-scaling-stroke" pen = "1,1" />
<rect style="fill:none;stroke:Black; stroke-width:1" x = "50" y = "50" width = "1.041667in" height = "1.041667in" transform = "matrix(1,0,0,1,209,147)" vector-effect="non-scaling-stroke" pen = "1,1" />
<rect style="fill:none;stroke:Black; stroke-width:1" x = "50" y = "50" width = "1.041667in" height = "1.041667in" transform = "matrix(1,0,0,1,183,53)" vector-effect="non-scaling-stroke" pen = "1,1" />
<rect style="fill:none;stroke:Black; stroke-width:1" x = "50" y = "50" width = "1.041667in" height = "1.041667in" transform = "matrix(1,0,0,1,91,138)" vector-effect="non-scaling-stroke" pen = "1,1" />
<rect style="fill:none;stroke:Black; stroke-width:1" x = "50" y = "50" width = "1.041667in" height = "1.041667in" transform = "matrix(1,0,0,1,61,66)" vector-effect="non-scaling-stroke" pen = "1,1" />
<rect style="fill:none;stroke:Black; stroke-width:1" x = "50" y = "50" width = "1.041667in" height = "1.041667in" transform = "matrix(1,0,0,1,209,147)" vector-effect="non-scaling-stroke" pen = "1,1" />
<rect style="fill:none;stroke:Black; stroke-width:1" x = "50" y = "50" width = "1.041667in" height = "1.041667in" transform = "matrix(1,0,0,1,183,53)" vector-effect="non-scaling-stroke" pen = "1,1" />
<rect style="fill:none;stroke:Black; stroke-width:1" x = "50" y = "50" width = "1.041667in" height = "1.041667in" transform = "matrix(1,0,0,1,91,138)" vector-effect="non-scaling-stroke" pen = "1,1" />
<rect style="fill:none;stroke:Black; stroke-width:1" x = "50" y = "50" width = "1.041667in" height = "1.041667in" transform = "matrix(1,0,0,1,61,66)" vector-effect="non-scaling-stroke" pen = "1,1" />
<rect style="fill:none;stroke:Black; stroke-width:1" x = "50" y = "50" width = "1.041667in" height = "1.041667in" transform = "matrix(1,0,0,1,209,147)" vector-effect="non-scaling-stroke" pen = "1,1" />
<rect style="fill:none;stroke:Black; stroke-width:1" x = "50" y = "50" width = "1.041667in" height = "1.041667in" transform = "matrix(1,0,0,1,183,53)" vector-effect="non-scaling-stroke" pen = "1,1" />
<rect style="fill:none;stroke:Black; stroke-width:1" x = "50" y = "50" width = "1.041667in" height = "1.041667in" transform = "matrix(1,0,0,1,91,138)" vector-effect="non-scaling-stroke" pen = "1,1" />
<rect style="fill:none;stroke:Black; stroke-width:1" x = "50" y = "50" width = "1.041667in" height = "1.041667in" transform = "matrix(1,0,0,1,61,66)" vector-effect="non-scaling-stroke" pen = "1,1" />
<rect style="fill:none;stroke:Black; stroke-width:1" x = "50" y = "50" width = "1.041667in" height = "1.041667in" transform = "matrix(1,0,0,1,209,147)" vector-effect="non-scaling-stroke" pen = "1,1" />
<rect style="fill:none;stroke:Black; stroke-width:1" x = "50" y = "50" width = "1.041667in" height = "1.041667in" transform = "matrix(1,0,0,1,183,53)" vector-effect="non-scaling-stroke" pen = "1,1" />
<rect style="fill:none;stroke:Black; stroke-width:1" x = "50" y = "50" width = "1.041667in" height = "1.041667in" transform = "matrix(1,0,0,1,91,138)" vector-effect="non-scaling-stroke" pen = "1,1" />
<rect style="fill:none;stroke:Black; stroke-width:1" x = "50" y = "50" width = "1.041667in" height = "1.041667in" transform = "matrix(1,0,0,1,61,66)" vector-effect="non-scaling-stroke" pen = "1,1" />
<rect style="fill:none;stroke:Black; stroke-width:1" x = "50" y = "50" width = "1.041667in" height = "1.041667in" transform = "matrix(1,0,0,1,209,147)" vector-effect="non-scaling-stroke" pen = "1,1" />
<rect style="fill:none;stroke:Black; stroke-width:1" x = "50" y = "50" width = "1.041667in" height = "1.041667in" transform = "matrix(1,0,0,1,183,53)" vector-effect="non-scaling-stroke" pen = "1,1" />
<rect style="fill:none;stroke:Black; stroke-width:1" x = "50" y = "50" width = "1.041667in" height = "1.041667in" transform = "matrix(1,0,0,1,91,138)" vector-effect="non-scaling-stroke" pen = "1,1" />
<rect style="fill:none;stroke:Black; stroke-width:1" x = "50" y = "50" width = "1.041667in" height = "1.041667in" transform = "matrix(1,0,0,1,61,66)" vector-effect="non-scaling-stroke" pen = "1,1" />
<rect style="fill:none;stroke:Black; stroke-width:1" x = "50" y = "50" width = "1.041667in" height = "1.041667in" transform = "matrix(1,0,0,1,209,147)" vector-effect="non-scaling-stroke" pen = "1,1" />
<rect style="fill:none;stroke:Black; stroke-width:1" x = "50" y = "50" width = "1.041667in" height = "1.041667in" transform = "matrix(1,0,0,1,183,53)" vector-effect="non-scaling-stroke" pen = "1,1" />
<rect style="fill:none;stroke:Black; stroke-width:1" x = "50" y = "50" width = "1.041667in" height = "1.041667in" transform = "matrix(1,0,0,1,91,138)" vector-effect="non-scaling-stroke" pen = "1,1" />
<rect style="fill:none;stroke:Black; stroke-width:1" x = "50" y = "50" width = "1.041667in" height = "1.041667in" transform = "matrix(1,0,0,1,61,66)" vector-effect="non-scaling-stroke" pen = "1,1" />
<rect style="fill:none;stroke:Black; stroke-width:1" x = "50" y = "50" width = "1.041667in" height = "1.041667in" transform = "matrix(1,0,0,1,209,147)" vector-effect="non-scaling-stroke" pen = "1,1" />
<rect style="fill:none;stroke:Black; stroke-width:1" x = "50" y = "50" width = "1.041667in" height = "1.041667in" transform = "matrix(1,0,0,1,183,53)" vector-effect="non-scaling-stroke" pen = "1,1" />
<rect style="fill:none;stroke:Black; stroke-width:1" x = "50" y = "50" width = "1.041667in" height = "1.041667in" transform = "matrix(1,0,0,1,91,138)" vector-effect="non-scaling-stroke" pen = "1,1" />
<rect style="fill:none;stroke:Black; stroke-width:1" x = "50" y = "50" width = "1.041667in" height = "1.041667in" transform = "matrix(1,0,0,1,61,66)" vector-effect="non-scaling-stroke" pen = "1,1" />
<rect style="fill:none;stroke:Black; stroke-width:1" x = "50" y = "50" width = "1.041667in" height = "1.041667in" transform = "matrix(1,0,0,1,209,147)" vector-effect="non-scaling-stroke" pen = "1,1" />
<rect style="fill:none;stroke:Black; stroke-width:1" x = "50" y = "50" width = "1.041667in" height = "1.041667in" transform = "matrix(1,0,0,1,183,53)" vector-effect="non-scaling-stroke" pen = "1,1" />
<rect style="fill:none;stroke:Black; stroke-width:1" x = "50" y = "50" width = "1.041667in" height = "1.041667in" transform = "matrix(1,0,0,1,91,138)" vector-effect="non-scaling-stroke" pen = "1,1" />
<rect style="fill:none;stroke:Black; stroke-width:1" x = "50" y = "50" width = "1.041667in" height = "1.041667in" transform = "matrix(1,0,0,1,61,66)" vector-effect="non-scaling-stroke" pen = "1,1" />
<rect style="fill:none;stroke:Black; stroke-width:1" x = "50" y = "50" width = "1.041667in" height = "1.041667in" transform = "matrix(1,0,0,1,209,147)" vector-effect="non-scaling-stroke" pen = "1,1" />
<rect style="fill:none;stroke:Black; stroke-width:1" x = "50" y = "50" width = "1.041667in" height = "1.041667in" transform = "matrix(1,0,0,1,183,53)" vector-effect="non-scaling-stroke" pen = "1,1" />
<rect style="fill:none;stroke:Black; stroke-width:1" x = "50" y = "50" width = "1.041667in" height = "1.041667in" transform = "matrix(1,0,0,1,91,138)" vector-effect="non-scaling-stroke" pen = "1,1" />
<rect style="fill:none;stroke:Black; stroke-width:1" x = "50" y = "50" width = "1.041667in" height = "1.041667in" transform = "matrix(1,0,0,1,61,66)" vector-effect="non-scaling-stroke" pen = "1,1" />
<rect style="fill:none;stroke:Black; stroke-width:1" x = "50" y = "50" width = "1.041667in" height = "1.041667in" transform = "matrix(1,0,0,1,209,147)" vector-effect="non-scaling-stroke" pen = "1,1" />
<rect style="fill:none;stroke:Black; stroke-width:1" x = "50" y = "50" width = "1.041667in" height = "1.041667in" transform = "matrix(1,0,0,1,183,53)" vector-effect="non-scaling-stroke" pen = "1,1" />
<rect style="fill:none;stroke:Black; stroke-width:1" x = "50" y = "50" width = "1.041667in" height = "1.041667in" transform = "matrix(1,0,0,1,91,138)" vector-effect="non-scaling-stroke" pen = "1,1" />
<rect style="fill:none;stroke:Black; stroke-width:1" x = "50" y = "50" width = "1.041667in" height = "1.041667in" transform = "matrix(1,0,0,1,61,66)" vector-effect="non-scaling-stroke" pen = "1,1" />
<rect style="fill:none;stroke:Black; stroke-width:1" x = "50" y = "50" width = "1.041667in" height = "1.041667in" transform = "matrix(1,0,0,1,209,147)" vector-effect="non-scaling-stroke" pen = "1,1" />
<rect style="fill:none;stroke:Black; stroke-width:1" x = "50" y = "50" width = "1.041667in" height = "1.041667in" transform = "matrix(1,0,0,1,183,53)" vector-effect="non-scaling-stroke" pen = "1,1" />
<rect style="fill:none;stroke:Black; stroke-width:1" x = "50" y = "50" width = "1.041667in" height = "1.041667in" transform = "matrix(1,0,0,1,91,138)" vector-effect="non-scaling-stroke" pen = "1,1" />
<rect style="fill:none;stroke:Black; stroke-width:1" x = "50" y = "50" width = "1.041667in" height = "1.041667in" transform = "matrix(1,0,0,1,61,66)" vector-effect="non-scaling-stroke" pen = "1,1" />
<rect style="fill:none;stroke:Black; stroke-width:1" x = "50" y = "50" width = "1.041667in" height = "1.041667in" transform = "matrix(1,0,0,1,209,147)" vector-effect="non-scaling-stroke" pen = "1,1" />
<rect style="fill:none;stroke:Black; stroke-width:1" x = "50" y = "50" width = "1.041667in" height = "1.041667in" transform = "matrix(1,0,0,1,183,53)" vector-effect="non-scaling-stroke" pen = "1,1" />
<rect style="fill:none;stroke:Black; stroke-width:1" x = "50" y = "50" width = "1.041667in" height = "1.041667in" transform = "matrix(1,0,0,1,91,138)" vector-effect="non-scaling-stroke" pen = "1,1" />
<rect style="fill:none;stroke:Black; stroke-width:1" x = "50" y = "50" width = "1.041667in" height = "1.041667in" transform = "matrix(1,0,0,1,61,66)" vector-effect="non-scaling-stroke" pen = "1,1" />
<rect style="fill:none;stroke:Black; stroke-width:1" x = "50" y = "50" width = "1.041667in" height = "1.041667in" transform = "matrix(1,0,0,1,209,147)" vector-effect="non-scaling-stroke" pen = "1,1" />
<rect style="fill:none;stroke:Black; stroke-width:1" x = "50" y = "50" width = "1.041667in" height = "1.041667in" transform = "matrix(1,0,0,1,183,53)" vector-effect="non-scaling-stroke" pen = "1,1" />
<rect style="fill:none;stroke:Black; stroke-width:1" x = "50" y = "50" width = "1.041667in" height = "1.041667in" transform = "matrix(1,0,0,1,91,138)" vector-effect="non-scaling-stroke" pen = "1,1" />
<rect style="fill:none;stroke:Black; stroke-width:1" x = "50" y = "50" width = "1.041667in" height = "1.041667in" transform = "matrix(1,0,0,1,61,66)" vector-effect="non-scaling-stroke" pen = "1,1" />
<rect style="fill:none;stroke:Black; stroke-width:1" x = "50" y = "50" width = "1.041667in" height = "1.041667in" transform = "matrix(1,0,0,1,209,147)" vector-effect="non-scaling-stroke" pen = "1,1" />
<rect style="fill:none;stroke:Black; stroke-width:1" x = "50" y = "50" width = "1.041667in" height = "1.041667in" transform = "matrix(1,0,0,1,183,53)" vector-effect="non-scaling-stroke" pen = "1,1" />
<rect style="fill:none;stroke:Black; stroke-width:1" x = "50" y = "50" width = "1.041667in" height = "1.041667in" transform = "matrix(1,0,0,1,91,138)" vector-effect="non-scaling-stroke" pen = "1,1" />
<rect style="fill:none;stroke:Black; stroke-width:1" x = "50" y = "50" width = "1.041667in" height = "1.041667in" transform = "matrix(1,0,0,1,61,66)" vector-effect="non-scaling-stroke" pen = "1,1" />
<rect style="fill:none;stroke:Black; stroke-width:1" x = "50" y = "50" width = "1.041667in" height = "1.041667in" transform = "matrix(1,0,0,1,209,147)" vector-effect="non-scaling-stroke" pen = "1,1" />
<rect style="fill:none;stroke:Black; stroke-width:1" x = "50" y = "50" width = "1.041667in" height = "1.041667in" transform = "matrix(1,0,0,1,183,53)" vector-effect="non-scaling-stroke" pen = "1,1" />
<rect style="fill:none;stroke:Black; stroke-width:1" x = "50" y = "50" width = "1.041667in" height = "1.041667in" transform = "matrix(1,0,0,1,91,138)" vector-effect="non-scaling-stroke" pen = "1,1" />
<rect style="fill:none;stroke:Black; stroke-width:1" x = "50" y = "50" width = "1.041667in" height = "1.041667in" transform = "matrix(1,0,0,1,61,66)" vector-effect="non-scaling-stroke" pen = "1,1" />
<rect style="fill:none;stroke:Black; stroke-width:1" x = "50" y = "50" width = "1.041667in" height = "1.041667in" transform = "matrix(1,0,0,1,209,147)" vector-effect="non-scaling-stroke" pen = "1,1" />
<rect style="fill:none;stroke:Black; stroke-width:1" x = "50" y = "50" width = "1.041667in" height = "1.041667in" transform = "matrix(1,0,0,1,183,53)" vector-effect="non-scaling-stroke" pen = "1,1" />
<rect style="fill:none;stroke:Black; stroke-width:1" x = "50" y = "50" width = "1.041667in" height = "1.041667in" transform = "matrix(1,0,0,1,91,138)" vector-effect="non-scaling-stroke" pen = "1,1" />
<rect style="fill:none;stroke:Black; stroke-width:1" x = "50" y = "50" width = "1.041667in" height = "1.041667in" transform = "matrix(1,0,0,1,61,66)" vector-effect="non-scaling-stroke" pen = "1,1" />
<rect style="fill:none;stroke:Black; stroke-width:1" x = "50" y = "50" width = "1.041667in" height = "1.041667in" transform = "matrix(1,0,0,1,209,147)" vector-effect="non-scaling-stroke" pen = "1,1" />
<rect style="fill:none;stroke:Black; stroke-width:1" x = "50" y = "50" width = "1.041667in" height = "1.041667in" transform = "matrix(1,0,0,1,183,53)" vector-effect="non-scaling-stroke" pen = "1,1" />
<rect style="fill:none;stroke:Black; stroke-width:1" x = "50" y = "50" width = "1.041667in" height = "1.041667in" transform = "matrix(1,0,0,1,91,138)" vector-effect="non-scaling-stroke" pen = "1,1" />
<rect style="fill:none;stroke:Black; stroke-width:1" x = "50" y = "50" width = "1.041667in" height = "1.041667in" transform = "matrix(1,0,0,1,61,66)" vector-effect="non-scaling-stroke" pen = "1,1" />
<rect style="fill:none;stroke:Black; stroke-width:1" x = "50" y = "50" width = "1.041667in" height = "1.041667in" transform = "matrix(1,0,0,1,209,147)" vector-effect="non-scaling-stroke" pen = "1,1" />
<rect style="fill:none;stroke:Black; stroke-width:1" x = "50" y = "50" width = "1.041667in" height = "1.041667in" transform = "matrix(1,0,0,1,183,53)" vector-effect="non-scaling-stroke" pen = "1,1" />
<rect style="fill:none;stroke:Black; stroke-width:1" x = "50" y = "50" width = "1.041667in" height = "1.041667in" transform = "matrix(1,0,0,1,91,138)" vector-effect="non-scaling-stroke" pen = "1,1" />
<rect style="fill:none;stroke:Black; stroke-width:1" x = "50" y = "50" width = "1.041667in" height = "1.041667in" transform = "matrix(1,0,0,1,61,66)" vector-effect="non-scaling-stroke" pen = "1,1" />
<rect style="fill:none;stroke:Black; stroke-width:1" x = "50" y = "50" width = "1.041667in" height = "1.041667in" transform = "matrix(1,0,0,1,209,147)" vector-effect="non-scaling-stroke" pen = "1,1" />
<rect style="fill:none;stroke:Black; stroke-width:1" x = "50" y = "50" width = "1.041667in" height = "1.041667in" transform = "matrix(1,0,0,1,183,53)" vector-effect="non-scaling-stroke" pen = "1,1" />
<rect style="fill:none;stroke:Black; stroke-width:1" x = "50" y = "50" width = "1.041667in" height = "1.041667in" transform = "matrix(1,0,0,1,91,138)" vector-effect="non-scaling-stroke" pen = "1,1" />
<rect style="fill:none;stroke:Black; stroke-width:1" x = "50" y = "50" width = "1.041667in" height = "1.041667in" transform = "matrix(1,0,0,1,61,66)" vector-effect="non-scaling-stroke" pen = "1,1" />
<rect style="fill:none;stroke:Black; stroke-width:1" x = "50" y = "50" width = "1.041667in" height = "1.041667in" transform = "matrix(1,0,0,1,209,147)" vector-effect="non-scaling-stroke" pen = "1,1" />
<rect style="fill:none;stroke:Black; stroke-width:1" x = "50" y = "50" width = "1.041667in" height = "1.041667in" transform = "matrix(1,0,0,1,183,53)" vector-effect="non-scaling-stroke" pen = "1,1" />
<rect style="fill:none;stroke:Black; stroke-width:1" x = "50" y = "50" width = "1.041667in" height = "1.041667in" transform = "matrix(1,0,0,1,91,138)" vector-effect="non-scaling-stroke" pen = "1,1" />
<rect style="fill:none;stroke:Black; stroke-width:1" x = "50" y = "50" width = "1.041667in" height = "1.041667in" transform = "matrix(1,0,0,1,61,66)" vector-effect="non-scaling-stroke" pen = "1,1" />
<rect style="fill:none;stroke:Black; stroke-width:1" x = "50" y = "50" width = "1.041667in" height = "1.041667in" transform = "matrix(1,0,0,1,209,147)" vector-effect="non-scaling-stroke" pen = "1,1" />
<rect style="fill:none;stroke:Black; stroke-width:1" x = "50" y = "50" width = "1.041667in" height = "1.041667in" transform = "matrix(1,0,0,1,183,53)" vector-effect="non-scaling-stroke" pen = "1,1" />
<rect style="fill:none;stroke:Black; stroke-width:1" x = "50" y = "50" width = "1.041667in" height = "1.041667in" transform = "matrix(1,0,0,1,91,138)" vector-effect="non-scaling-stroke" pen = "1,1" />
<rect style="fill:none;stroke:Black; stroke-width:1" x = "50" y = "50" width = "1.041667in" height = "1.041667in" transform = "matrix(1,0,0,1,61,66)" vector-effect="non-scaling-stroke" pen = "1,1" />
<rect style="fill:none;stroke:Black; stroke-width:1" x = "50" y = "50" width = "1.041667in" height = "1.041667in" transform = "matrix(1,0,0,1,209,147)" vector-effect="non-scaling-stroke" pen = "1,1" />
<rect style="fill:none;stroke:Black; stroke-width:1" x = "50" y = "50" width = "1.041667in" height = "1.041667in" transform = "matrix(1,0,0,1,183,53)" vector-effect="non-scaling-stroke" pen = "1,1" />
<rect style="fill:none;stroke:Black; stroke-width:1" x = "50" y = "50" width = "1.041667in" height = "1.041667in" transform = "matrix(1,0,0,1,91,138)" vector-effect="non-scaling-stroke" pen = "1,1" />
<rect style="fill:none;stroke:Black; stroke-width:1" x = "50" y = "50" width = "1.041667in" height = "1.041667in" transform = "matrix(1,0,0,1,61,66)" vector-effect="non-scaling-stroke" pen = "1,1" />
<rect style="fill:none;stroke:Black; stroke-width:1" x = "50" y = "50" width = "1.041667in" height = "1.041667in" transform = "matrix(1,0,0,1,209,147)" vector-effect="non-scaling-stroke" pen = "1,1" />
<rect style="fill:none;stroke:Black; stroke-width:1" x = "50" y = "50" width = "1.041667in" height = "1.041667in" transform = "matrix(1,0,0,1,183,53)" vector-effect="non-scaling-stroke" pen = "1,1" />
<rect style="fill:none;stroke:Black; stroke-width:1" x = "50" y = "50" width = "1.041667in" height = "1.041667in" transform = "matrix(1,0,0,1,91,138)" vector-effect="non-scaling-stroke" pen = "1,1" />
</g>
</svg>
